<svg xmlns="http://www.w3.org/2000/svg" viewBox="0 0 512 512" width="512" height="512">
  <defs>
    <linearGradient id="favBg" x1="0%" y1="0%" x2="100%" y2="100%">
      <stop offset="0%" stop-color="#0284c7"/>
      <stop offset="50%" stop-color="#0369a1"/>
      <stop offset="100%" stop-color="#1e1b4b"/>
    </linearGradient>
    <linearGradient id="boltGrad" x1="0%" y1="0%" x2="100%" y2="100%">
      <stop offset="0%" stop-color="#ffffff"/>
      <stop offset="50%" stop-color="#e0f2fe"/>
      <stop offset="100%" stop-color="#38bdf8"/>
    </linearGradient>
    <linearGradient id="neonCyan" x1="0%" y1="0%" x2="100%" y2="100%">
      <stop offset="0%" stop-color="#38bdf8"/>
      <stop offset="100%" stop-color="#00f0ff"/>
    </linearGradient>
  </defs>

  <!-- High-Visibility Radiant Squircle with Cyan Rim -->
  <rect x="24" y="24" width="464" height="464" rx="124" fill="url(#favBg)"/>
  <rect x="24" y="24" width="464" height="464" rx="124" fill="none" stroke="#38bdf8" stroke-width="28"/>
  <rect x="42" y="42" width="428" height="428" rx="106" fill="none" stroke="rgba(255,255,255,0.3)" stroke-width="8"/>

  <!-- Left Organic Brain Arc (Bold Solid White - 52px stroke) -->
  <path d="M 230 115 C 145 115 88 170 88 256 C 88 305 120 340 148 355 C 120 380 118 415 145 435 C 180 455 220 425 230 405" 
        fill="none" stroke="#ffffff" stroke-width="52" stroke-linecap="round" stroke-linejoin="round"/>
  <path d="M 225 200 C 165 200 145 230 152 265 C 160 295 195 305 225 305" 
        fill="none" stroke="#ffffff" stroke-width="48" stroke-linecap="round"/>

  <!-- Right Cyber Neural Matrix (Electric Cyan - 50px stroke) -->
  <path d="M 282 115 C 367 115 424 170 424 256 C 424 305 392 340 364 355 C 392 380 394 415 367 435 C 332 455 292 425 282 405" 
        fill="none" stroke="url(#neonCyan)" stroke-width="52" stroke-linecap="round" stroke-linejoin="round"/>
  <line x1="282" y1="200" x2="355" y2="235" stroke="url(#neonCyan)" stroke-width="48" stroke-linecap="round"/>
  <line x1="355" y1="235" x2="330" y2="315" stroke="url(#neonCyan)" stroke-width="48" stroke-linecap="round"/>
  <line x1="330" y1="315" x2="282" y2="315" stroke="url(#neonCyan)" stroke-width="48" stroke-linecap="round"/>

  <!-- Center Focal High-Energy Bolt (Solid Crisp Filled Silhouette) -->
  <polygon points="256,90 310,230 250,230 274,380 190,260 240,260" fill="url(#boltGrad)" stroke="#0369a1" stroke-width="12" stroke-linejoin="round"/>

  <!-- High-Visibility Synapse Nodes -->
  <circle cx="282" cy="115" r="26" fill="#ffffff" stroke="#0284c7" stroke-width="8"/>
  <circle cx="424" cy="256" r="26" fill="#00f0ff" stroke="#ffffff" stroke-width="8"/>
  <circle cx="355" cy="235" r="28" fill="#ffffff" stroke="#00f0ff" stroke-width="8"/>
  <circle cx="367" cy="435" r="26" fill="#00f0ff" stroke="#ffffff" stroke-width="8"/>
</svg>